<mxfile host="app.diagrams.net" modified="2022-03-28T16:05:23.140Z" agent="5.0 (X11)" etag="blr2cGf8JuBaWws8CnqO" version="17.2.4" type="github">
  <diagram id="XwmDZTJdUsiXufdIT6kG" name="Page-1">
    <mxGraphModel dx="1863" dy="1020" grid="1" gridSize="10" guides="1" tooltips="1" connect="1" arrows="1" fold="1" page="1" pageScale="1" pageWidth="850" pageHeight="1100" math="0" shadow="0">
      <root>
        <mxCell id="0" />
        <mxCell id="1" parent="0" />
        <mxCell id="E7AvGNFa5g41tYuP6eVd-1" value="Développement d&#39;application mobile" style="rounded=0;whiteSpace=wrap;html=1;fillColor=#dae8fc;strokeColor=#6c8ebf;" parent="1" vertex="1">
          <mxGeometry x="440" y="360" width="120" height="40" as="geometry" />
        </mxCell>
        <mxCell id="E7AvGNFa5g41tYuP6eVd-2" value="&lt;div&gt;Développement &lt;br&gt;&lt;/div&gt;&lt;div&gt;Front-End&lt;/div&gt;" style="rounded=0;whiteSpace=wrap;html=1;fillColor=#dae8fc;strokeColor=#6c8ebf;" parent="1" vertex="1">
          <mxGeometry x="280" y="360" width="120" height="40" as="geometry" />
        </mxCell>
        <mxCell id="E7AvGNFa5g41tYuP6eVd-3" value="&lt;div&gt;Développement &lt;br&gt;&lt;/div&gt;&lt;div&gt;Back-end&lt;br&gt;&lt;/div&gt;" style="rounded=0;whiteSpace=wrap;html=1;fillColor=#f8cecc;strokeColor=#b85450;" parent="1" vertex="1">
          <mxGeometry x="600" y="360" width="120" height="40" as="geometry" />
        </mxCell>
        <mxCell id="E7AvGNFa5g41tYuP6eVd-4" value="Base de données" style="rounded=0;whiteSpace=wrap;html=1;fillColor=#f8cecc;strokeColor=#b85450;" parent="1" vertex="1">
          <mxGeometry x="760" y="360" width="120" height="40" as="geometry" />
        </mxCell>
        <mxCell id="E7AvGNFa5g41tYuP6eVd-5" value="Dev-Ops" style="rounded=0;whiteSpace=wrap;html=1;fillColor=#e1d5e7;strokeColor=#9673a6;" parent="1" vertex="1">
          <mxGeometry x="920" y="360" width="120" height="40" as="geometry" />
        </mxCell>
        <mxCell id="E7AvGNFa5g41tYuP6eVd-13" value="&lt;div style=&quot;font-size: 11px&quot;&gt;&lt;font style=&quot;font-size: 11px&quot;&gt;Javascript, Typescript,&lt;/font&gt;&lt;/div&gt;&lt;div style=&quot;font-size: 11px&quot;&gt;&lt;font style=&quot;font-size: 11px&quot;&gt;React.js, ...&lt;br&gt;&lt;/font&gt;&lt;/div&gt;" style="rounded=0;whiteSpace=wrap;html=1;fillColor=#dae8fc;strokeColor=#6c8ebf;gradientColor=#ffffff;" parent="1" vertex="1">
          <mxGeometry x="280" y="430" width="120" height="40" as="geometry" />
        </mxCell>
        <mxCell id="E7AvGNFa5g41tYuP6eVd-14" value="&lt;div&gt;React-Native,&lt;/div&gt;&lt;div&gt;...&lt;br&gt;&lt;/div&gt;" style="rounded=0;whiteSpace=wrap;html=1;fillColor=#dae8fc;strokeColor=#6c8ebf;gradientColor=#ffffff;" parent="1" vertex="1">
          <mxGeometry x="440" y="430" width="120" height="40" as="geometry" />
        </mxCell>
        <mxCell id="E7AvGNFa5g41tYuP6eVd-15" value="Flask, RabbitMq, Nginx, Apache, ..." style="rounded=0;whiteSpace=wrap;html=1;fillColor=#f8cecc;strokeColor=#b85450;gradientColor=#ffffff;" parent="1" vertex="1">
          <mxGeometry x="600" y="430" width="120" height="40" as="geometry" />
        </mxCell>
        <mxCell id="E7AvGNFa5g41tYuP6eVd-16" value="&lt;div&gt;Mysql, MongoDb,&lt;/div&gt;&lt;div&gt;...&lt;br&gt;&lt;/div&gt;" style="rounded=0;whiteSpace=wrap;html=1;fillColor=#f8cecc;strokeColor=#b85450;gradientColor=#ffffff;" parent="1" vertex="1">
          <mxGeometry x="760" y="430" width="120" height="40" as="geometry" />
        </mxCell>
        <mxCell id="E7AvGNFa5g41tYuP6eVd-17" value="&lt;div&gt;Gitlab, Intégration Continue, Docker ...&lt;br&gt;&lt;/div&gt;" style="rounded=0;whiteSpace=wrap;html=1;fillColor=#e1d5e7;strokeColor=#9673a6;gradientColor=#ffffff;" parent="1" vertex="1">
          <mxGeometry x="920" y="430" width="120" height="40" as="geometry" />
        </mxCell>
        <mxCell id="E7AvGNFa5g41tYuP6eVd-18" value="" style="endArrow=classic;html=1;rounded=0;fontSize=11;exitX=0.5;exitY=1;exitDx=0;exitDy=0;" parent="1" source="E7AvGNFa5g41tYuP6eVd-2" target="E7AvGNFa5g41tYuP6eVd-13" edge="1">
          <mxGeometry width="50" height="50" relative="1" as="geometry">
            <mxPoint x="430" y="390" as="sourcePoint" />
            <mxPoint x="480" y="340" as="targetPoint" />
          </mxGeometry>
        </mxCell>
        <mxCell id="E7AvGNFa5g41tYuP6eVd-19" value="" style="endArrow=classic;html=1;rounded=0;fontSize=11;exitX=0.5;exitY=1;exitDx=0;exitDy=0;" parent="1" edge="1">
          <mxGeometry width="50" height="50" relative="1" as="geometry">
            <mxPoint x="499.71000000000004" y="400" as="sourcePoint" />
            <mxPoint x="499.71000000000004" y="430" as="targetPoint" />
          </mxGeometry>
        </mxCell>
        <mxCell id="E7AvGNFa5g41tYuP6eVd-20" value="" style="endArrow=classic;html=1;rounded=0;fontSize=11;exitX=0.5;exitY=1;exitDx=0;exitDy=0;" parent="1" edge="1">
          <mxGeometry width="50" height="50" relative="1" as="geometry">
            <mxPoint x="659.71" y="400" as="sourcePoint" />
            <mxPoint x="659.71" y="430" as="targetPoint" />
          </mxGeometry>
        </mxCell>
        <mxCell id="E7AvGNFa5g41tYuP6eVd-21" value="" style="endArrow=classic;html=1;rounded=0;fontSize=11;exitX=0.5;exitY=1;exitDx=0;exitDy=0;" parent="1" edge="1">
          <mxGeometry width="50" height="50" relative="1" as="geometry">
            <mxPoint x="819.7100000000003" y="400" as="sourcePoint" />
            <mxPoint x="819.7100000000003" y="430" as="targetPoint" />
          </mxGeometry>
        </mxCell>
        <mxCell id="E7AvGNFa5g41tYuP6eVd-22" value="" style="endArrow=classic;html=1;rounded=0;fontSize=11;exitX=0.5;exitY=1;exitDx=0;exitDy=0;" parent="1" edge="1">
          <mxGeometry width="50" height="50" relative="1" as="geometry">
            <mxPoint x="979.7100000000003" y="400" as="sourcePoint" />
            <mxPoint x="979.7100000000003" y="430" as="targetPoint" />
          </mxGeometry>
        </mxCell>
        <mxCell id="E7AvGNFa5g41tYuP6eVd-23" value="" style="endArrow=none;html=1;rounded=0;fontSize=11;fillColor=#d5e8d4;strokeColor=#82b366;strokeWidth=2;" parent="1" edge="1">
          <mxGeometry width="50" height="50" relative="1" as="geometry">
            <mxPoint x="280" y="340" as="sourcePoint" />
            <mxPoint x="560" y="340" as="targetPoint" />
          </mxGeometry>
        </mxCell>
        <mxCell id="E7AvGNFa5g41tYuP6eVd-24" value="&lt;div&gt;Front-End&lt;/div&gt;" style="text;html=1;align=center;verticalAlign=middle;resizable=0;points=[];autosize=1;strokeColor=#82b366;fillColor=#d5e8d4;fontSize=11;" parent="1" vertex="1">
          <mxGeometry x="390" y="320" width="60" height="20" as="geometry" />
        </mxCell>
        <mxCell id="E7AvGNFa5g41tYuP6eVd-26" value="" style="endArrow=none;html=1;rounded=0;fontSize=11;fillColor=#f8cecc;strokeColor=#b85450;strokeWidth=2;" parent="1" edge="1">
          <mxGeometry width="50" height="50" relative="1" as="geometry">
            <mxPoint x="600" y="339.13" as="sourcePoint" />
            <mxPoint x="880" y="339.13" as="targetPoint" />
          </mxGeometry>
        </mxCell>
        <mxCell id="E7AvGNFa5g41tYuP6eVd-27" value="&lt;div&gt;Back-End&lt;/div&gt;" style="text;html=1;align=center;verticalAlign=middle;resizable=0;points=[];autosize=1;strokeColor=#b85450;fillColor=#f8cecc;fontSize=11;" parent="1" vertex="1">
          <mxGeometry x="710" y="319.13" width="60" height="20" as="geometry" />
        </mxCell>
        <mxCell id="E7AvGNFa5g41tYuP6eVd-28" value="DevOps" style="text;html=1;align=center;verticalAlign=middle;resizable=0;points=[];autosize=1;strokeColor=#9673a6;fillColor=#e1d5e7;fontSize=11;" parent="1" vertex="1">
          <mxGeometry x="950" y="320" width="60" height="20" as="geometry" />
        </mxCell>
        <mxCell id="E7AvGNFa5g41tYuP6eVd-30" value="" style="endArrow=none;html=1;rounded=0;fontSize=11;fillColor=#e1d5e7;strokeColor=#9673a6;strokeWidth=2;" parent="1" edge="1">
          <mxGeometry width="50" height="50" relative="1" as="geometry">
            <mxPoint x="920" y="340" as="sourcePoint" />
            <mxPoint x="1040" y="340" as="targetPoint" />
          </mxGeometry>
        </mxCell>
        <mxCell id="E7AvGNFa5g41tYuP6eVd-32" value="" style="endArrow=none;html=1;rounded=0;fontSize=11;strokeWidth=2;fillColor=#a20025;strokeColor=#6F0000;" parent="1" edge="1">
          <mxGeometry width="50" height="50" relative="1" as="geometry">
            <mxPoint x="280" y="300" as="sourcePoint" />
            <mxPoint x="1040" y="300" as="targetPoint" />
          </mxGeometry>
        </mxCell>
        <mxCell id="E7AvGNFa5g41tYuP6eVd-35" value="&lt;div&gt;Full-Stack&lt;/div&gt;" style="text;html=1;align=center;verticalAlign=middle;resizable=0;points=[];autosize=1;strokeColor=#6F0000;fillColor=#a20025;fontSize=11;fontColor=#ffffff;" parent="1" vertex="1">
          <mxGeometry x="710" y="280" width="60" height="20" as="geometry" />
        </mxCell>
      </root>
    </mxGraphModel>
  </diagram>
</mxfile>
